<?xml version="1.0" encoding="UTF-8" standalone="no"?>
<!-- Created with Inkscape (http://www.inkscape.org/) -->

<svg
   width="120mm"
   height="120mm"
   viewBox="-60 -60 120 120"
   sodipodi:docname="dessin.svg"
   version="1.1"
   id="svg901"
   inkscape:version="1.1.1 (3bf5ae0d25, 2021-09-20)"
   xmlns:inkscape="http://www.inkscape.org/namespaces/inkscape"
   xmlns:sodipodi="http://sodipodi.sourceforge.net/DTD/sodipodi-0.dtd"
   xmlns="http://www.w3.org/2000/svg"
   xmlns:svg="http://www.w3.org/2000/svg"
   xmlns:rdf="http://www.w3.org/1999/02/22-rdf-syntax-ns#"
   xmlns:cc="http://creativecommons.org/ns#"
   xmlns:dc="http://purl.org/dc/elements/1.1/">
  <defs
     id="defs903" />
  <sodipodi:namedview
     pagecolor="#ffffff"
     bordercolor="#666666"
     borderopacity="1.0"
     inkscape:pageopacity="0.0"
     inkscape:pageshadow="2"
     inkscape:zoom="0.70710678"
     inkscape:cx="118.08683"
     inkscape:cy="174.65537"
     inkscape:document-units="mm"
     inkscape:current-layer="Template"
     showgrid="false"
     units="mm"
     showguides="true"
     inkscape:guide-bbox="true"
     inkscape:snap-global="true"
     inkscape:snap-bbox="true"
     inkscape:snap-bbox-midpoints="true"
     inkscape:window-width="1920"
     inkscape:window-height="1001"
     inkscape:window-x="-9"
     inkscape:window-y="-9"
     inkscape:window-maximized="1"
     inkscape:bbox-paths="true"
     inkscape:bbox-nodes="true"
     inkscape:snap-bbox-edge-midpoints="true"
     inkscape:snap-grids="true"
     id="namedview891"
     inkscape:pagecheckerboard="0">
    <sodipodi:guide
       orientation="1,0"
       position="226.771653543,226.771653543"
       id="guide2827" />
    <sodipodi:guide
       orientation="0,1"
       position="226.771653543,226.771653543"
       id="guide2829" />
    <inkscape:grid
       type="xygrid"
       id="grid3072"
       empspacing="10"
       visible="true"
       enabled="true"
       snapvisiblegridlinesonly="true"
       units="mm"
       dotted="false"
       spacingx="0.1mm"
       spacingy="0.1mm" />
  </sodipodi:namedview>
  <metadata
     id="metadata2822">
    <rdf:RDF>
      <cc:Work
         rdf:about="">
        <dc:format>image/svg+xml</dc:format>
        <dc:type
           rdf:resource="http://purl.org/dc/dcmitype/StillImage" />
      </cc:Work>
    </rdf:RDF>
  </metadata>
  <g
     inkscape:label="Layer 1"
     inkscape:groupmode="layer"
     id="Template"
     style="fill:none;stroke:black;stroke-width:0.05">
    <circle
       cx="0"
       cy="0"
       r="19"
       id="circle896" />
    <g
       id="g987"
       transform="matrix(0.51658865,0,0,0.51658865,-55.267673,-63.486961)">
      <g
         id="layer7"
         inkscape:label="Perso 2">
        <path
           id="path342-2"
           style="display:inline;fill:#800080;stroke:#ffffff;stroke-width:0.837036;stroke-miterlimit:4;stroke-dasharray:none;stroke-opacity:1"
           d="m 165.87378,23.906512 a 18.833315,18.833315 0 0 0 -18.83325,18.833246 18.833315,18.833315 0 0 0 18.83325,18.833247 18.833315,18.833315 0 0 0 18.83325,-18.833247 18.833315,18.833315 0 0 0 -18.83325,-18.833246 z m 0,41.735494 a 41.85181,41.85181 0 0 0 -41.85185,41.851844 41.85181,41.85181 0 0 0 2.097,13.01588 l -0.11678,0.002 0.60124,1.38286 a 41.85181,41.85181 0 0 0 1.96161,4.5128 l 38.03243,87.48633 36.55138,-87.42234 a 41.85181,41.85181 0 0 0 2.41406,-5.77412 l 0.4598,-1.09997 -0.0943,8.4e-4 a 41.85181,41.85181 0 0 0 1.79725,-12.10363 41.85181,41.85181 0 0 0 -41.85185,-41.851852 z m 0,27.203536 a 14.648133,14.648133 0 0 1 14.64788,14.648308 14.648133,14.648133 0 0 1 -14.64788,14.64789 14.648133,14.648133 0 0 1 -14.64833,-14.64789 14.648133,14.648133 0 0 1 14.64833,-14.648308 z" />
      </g>
      <g
         id="g4706"
         inkscape:label="Copie de Perso 2">
        <path
           id="path4704"
           style="display:inline;fill:#800080;stroke:#ffffff;stroke-width:0.837036;stroke-miterlimit:4;stroke-dasharray:none;stroke-opacity:1"
           d="m 48.097918,23.174985 a 18.833315,18.833315 0 0 0 -18.83325,18.833246 18.833315,18.833315 0 0 0 18.83325,18.833247 18.833315,18.833315 0 0 0 18.83325,-18.833247 18.833315,18.833315 0 0 0 -18.83325,-18.833246 z m 0,41.735494 a 41.85181,41.85181 0 0 0 -41.8518501,41.851841 41.85181,41.85181 0 0 0 2.097,13.01588 l -0.11678,0.002 0.60124,1.38286 a 41.85181,41.85181 0 0 0 1.9616101,4.5128 l 38.03243,87.48633 36.55138,-87.42234 a 41.85181,41.85181 0 0 0 2.41406,-5.77412 l 0.4598,-1.09997 -0.0943,8.4e-4 a 41.85181,41.85181 0 0 0 1.79725,-12.10363 41.85181,41.85181 0 0 0 -41.85185,-41.851849 z m 0,27.203536 a 14.648133,14.648133 0 0 1 14.64788,14.648305 14.648133,14.648133 0 0 1 -14.64788,14.64789 14.648133,14.648133 0 0 1 -14.64833,-14.64789 14.648133,14.648133 0 0 1 14.64833,-14.648305 z" />
      </g>
      <g
         id="layer6"
         inkscape:label="Perso 1">
        <path
           id="path342-4"
           style="display:inline;fill:#800080;stroke:#ffffff;stroke-width:1;stroke-miterlimit:4;stroke-dasharray:none;stroke-opacity:1"
           d="M 107.16872,9.0215277 A 22.5,22.5 0 0 0 84.668801,31.521446 22.5,22.5 0 0 0 107.16872,54.021365 22.5,22.5 0 0 0 129.66864,31.521446 22.5,22.5 0 0 0 107.16872,9.0215277 Z m 0,49.8610383 a 50,50 0 0 0 -50.000049,50.000044 50,50 0 0 0 2.50527,15.54995 l -0.13952,0.002 0.7183,1.6521 a 50,50 0 0 0 2.34352,5.3914 l 45.437019,104.51875 43.66762,-104.44272 a 50,50 0 0 0 2.88406,-6.89828 l 0.54932,-1.31414 -0.11265,0.001 a 50,50 0 0 0 2.14716,-14.46009 50,50 0 0 0 -50.00005,-50.00005 z m 0,32.499826 a 17.499999,17.499999 0 0 1 17.4997,17.500218 17.499999,17.499999 0 0 1 -17.4997,17.49971 17.499999,17.499999 0 0 1 -17.500233,-17.49971 17.499999,17.499999 0 0 1 17.500233,-17.500218 z" />
      </g>
      <g
         id="layer3"
         inkscape:label="Cercle Central 1"
         style="display:none">
        <g
           inkscape:label="Cercle Principal"
           inkscape:groupmode="layer"
           id="layer1"
           style="display:none">
          <path
             id="path342"
             style="fill:#800080;stroke:#ffffff;stroke-width:3.77953;stroke-miterlimit:4;stroke-dasharray:none;stroke-opacity:1"
             d="M 377.95312,0.52539062 A 85.03937,85.03937 0 0 0 292.91406,85.564453 85.03937,85.03937 0 0 0 377.95312,170.60352 85.03937,85.03937 0 0 0 462.99219,85.564453 85.03937,85.03937 0 0 0 377.95312,0.52539062 Z m 0,188.45116938 a 188.97638,188.97638 0 0 0 -188.97656,188.97656 188.97638,188.97638 0 0 0 9.46875,58.77149 l -0.52734,0.006 2.71484,6.24414 a 188.97638,188.97638 0 0 0 8.85742,20.37695 L 381.2207,858.38477 546.26367,463.64062 a 188.97638,188.97638 0 0 0 10.90039,-26.07226 l 2.07617,-4.9668 -0.42578,0.004 a 188.97638,188.97638 0 0 0 8.11524,-54.65235 188.97638,188.97638 0 0 0 -188.97657,-188.97656 z m 0,122.83399 a 66.14173,66.14173 0 0 1 66.14063,66.14257 66.14173,66.14173 0 0 1 -66.14063,66.14063 66.14173,66.14173 0 0 1 -66.14257,-66.14063 66.14173,66.14173 0 0 1 66.14257,-66.14257 z"
             transform="scale(0.26458333)" />
        </g>
        <g
           inkscape:groupmode="layer"
           id="layer2"
           inkscape:label="Triangle"
           style="display:none" />
        <g
           inkscape:groupmode="layer"
           id="layer4"
           inkscape:label="Tête"
           style="display:none" />
      </g>
    </g>
  </g>
</svg>
